<?xml version="1.0" encoding="utf-8"?>
<!-- Generator: Adobe Illustrator 19.2.0, SVG Export Plug-In . SVG Version: 6.00 Build 0)  -->
<svg version="1.1" id="Capa_1" xmlns="http://www.w3.org/2000/svg" xmlns:xlink="http://www.w3.org/1999/xlink" x="0px" y="0px"
	 viewBox="0 0 47 47" style="enable-background:new 0 0 47 47;" xml:space="preserve">
<style type="text/css">
	.st0{fill:#01889A;}
</style>
<g>
	<g id="Layer_1_38_">
		<g>
			<path class="st0" d="M22.3,18l0.6-3.9l-0.3-0.5c0-0.1,0-0.2,0-0.2l0.8-0.8c0.1-0.1,0.2-0.1,0.3,0l0.8,0.8c0.1,0.1,0.1,0.1,0,0.2
				l-0.3,0.5l0.6,3.8c4.7-0.1,7.6-0.6,7.6-1.2c0-2.7-1.9-2.9-3.9-3.5c-1.3-0.4-2.9-0.6-2.5-2.9C26.7,9.7,27,8.1,27,8.1
				s1.1-0.6,1.3-1.6c0.1-0.8-0.3-1.2-0.3-1.2s0-0.1,0-1c0-2.3-2-4.2-4.4-4.2c-2.4,0-4.4,1.8-4.4,4.2c0,1,0,1,0,1s-0.4,0.4-0.3,1.2
				C18.9,7.5,20,8.1,20,8.1s0.3,1.6,1.1,2.4c0.3,2.2-1.2,2.4-2.5,2.9c-2.1,0.7-3.9,0.8-3.9,3.5C14.7,17.4,17.5,17.9,22.3,18z"/>
			<path class="st0" d="M9.1,43.9c-0.9-0.3-1.9-0.4-1.7-1.9c0.6-0.5,0.8-1.6,0.8-1.6S8.9,40,9,39.3c0.1-0.5-0.2-0.8-0.2-0.8
				s0,0,0-0.7c0-1.6-1.3-2.8-2.9-2.8s-2.9,1.2-2.9,2.8c0,0.7,0,0.7,0,0.7s-0.3,0.3-0.2,0.8c0.1,0.7,0.8,1.1,0.8,1.1s0.2,1.1,0.8,1.6
				c0.2,1.5-0.8,1.6-1.7,1.9C1.2,44.3,0,44.4,0,46.2c0,0.4,1.9,0.7,5.1,0.8l0.4-2.6l-0.2-0.3c0,0,0-0.1,0-0.1l0.5-0.6
				c0,0,0.1,0,0.2,0L6.5,44c0,0,0,0.1,0,0.1l-0.2,0.3L6.7,47c3.1-0.1,5.1-0.4,5.1-0.8C11.8,44.4,10.5,44.3,9.1,43.9z"/>
			<path class="st0" d="M26.7,43.9c-0.9-0.3-1.9-0.4-1.7-1.9c0.6-0.5,0.8-1.6,0.8-1.6s0.7-0.4,0.8-1.1c0.1-0.5-0.2-0.8-0.2-0.8
				s0,0,0-0.7c0-1.6-1.3-2.8-2.9-2.8s-2.9,1.2-2.9,2.8c0,0.7,0,0.7,0,0.7s-0.3,0.3-0.2,0.8c0.1,0.7,0.8,1.1,0.8,1.1s0.2,1.1,0.8,1.6
				c0.2,1.5-0.8,1.6-1.7,1.9c-1.4,0.4-2.6,0.5-2.6,2.4c0,0.4,1.9,0.7,5.1,0.8l0.4-2.6l-0.2-0.3c0,0,0-0.1,0-0.1l0.5-0.6
				c0,0,0.1,0,0.2,0l0.5,0.6c0,0,0,0.1,0,0.1l-0.2,0.3l0.4,2.6c3.1-0.1,5.1-0.4,5.1-0.8C29.4,44.4,28.1,44.3,26.7,43.9z"/>
			<path class="st0" d="M44.4,43.9c-0.9-0.3-1.9-0.4-1.7-1.9c0.6-0.5,0.8-1.6,0.8-1.6s0.7-0.4,0.8-1.1c0.1-0.5-0.2-0.8-0.2-0.8
				s0,0,0-0.7c0-1.6-1.3-2.8-2.9-2.8s-2.9,1.2-2.9,2.8c0,0.7,0,0.7,0,0.7s-0.3,0.3-0.2,0.8c0.1,0.7,0.8,1.1,0.8,1.1s0.2,1.1,0.8,1.6
				c0.2,1.5-0.8,1.6-1.7,1.9c-1.4,0.4-2.6,0.5-2.6,2.4c0,0.4,1.9,0.7,5.1,0.8l0.4-2.6l-0.2-0.3c0,0,0-0.1,0-0.1l0.5-0.6
				c0,0,0.1,0,0.2,0l0.5,0.6c0,0,0,0.1,0,0.1l-0.2,0.3l0.4,2.6c3.1-0.1,5.1-0.4,5.1-0.8C47,44.4,45.8,44.3,44.4,43.9z"/>
			<path class="st0" d="M5.9,32.9c0.6,0,1.2-0.5,1.2-1.2V27h15.3v4.7c0,0.6,0.5,1.2,1.2,1.2s1.2-0.5,1.2-1.2V27h15.3v4.7
				c0,0.6,0.5,1.2,1.2,1.2s1.2-0.5,1.2-1.2v-5.9c0-0.6-0.5-1.2-1.2-1.2H24.7v-3.5c0-0.6-0.5-1.2-1.2-1.2c-0.6,0-1.2,0.5-1.2,1.2v3.5
				H5.9c-0.6,0-1.2,0.5-1.2,1.2v5.9C4.7,32.4,5.2,32.9,5.9,32.9z"/>
		</g>
	</g>
</g>
</svg>
