<?xml version="1.0" encoding="utf-8"?>
<!-- Generator: Adobe Illustrator 19.2.0, SVG Export Plug-In . SVG Version: 6.00 Build 0)  -->
<svg version="1.1" id="Capa_1" xmlns="http://www.w3.org/2000/svg" xmlns:xlink="http://www.w3.org/1999/xlink" x="0px" y="0px"
	 viewBox="0 0 47 47" style="enable-background:new 0 0 47 47;" xml:space="preserve">
<style type="text/css">
	.st0{fill:#01889A;}
</style>
<g>
	<g id="Layer_1_156_">
		<g>
			<path class="st0" d="M7.4,22.5H2.2c-1.2,0-2.1,1-2.1,2.1v20.2c0,1.2,1,2.1,2.1,2.1h5.2c1.2,0,2.1-1,2.1-2.1V24.7
				C9.6,23.5,8.6,22.5,7.4,22.5z"/>
			<path class="st0" d="M19.9,28.9h-5.2c-1.2,0-2.1,1-2.1,2.1v13.8c0,1.2,1,2.1,2.1,2.1h5.2c1.2,0,2.1-1,2.1-2.1V31
				C22,29.9,21.1,28.9,19.9,28.9z"/>
			<path class="st0" d="M32.3,28.9h-5.2c-1.2,0-2.1,1-2.1,2.1v13.8c0,1.2,1,2.1,2.1,2.1h5.2c1.2,0,2.1-1,2.1-2.1V31
				C34.5,29.9,33.5,28.9,32.3,28.9z"/>
			<path class="st0" d="M44.8,22.5h-5.2c-1.2,0-2.1,1-2.1,2.1v20.2c0,1.2,1,2.1,2.1,2.1h5.2c1.2,0,2.1-1,2.1-2.1V24.7
				C46.9,23.5,45.9,22.5,44.8,22.5z"/>
			<path class="st0" d="M29.1,4.3c-0.1-0.1-0.2-0.1-0.3-0.2l-6.1-1.9c-2.4-0.8-4,0.6-4.4,1c-0.3,0.3-0.4,0.5-0.5,0.7L15,10.3
				c-0.2,0.4-0.1,0.9,0.1,1.3c0.4,0.7,1,1.2,1.7,1.4c0.8,0.2,1.7-0.1,2.4-0.8c0.2-0.2,0.3-0.4,0.4-0.5l0.9-1.7
				c0.1-0.3,0.4-0.6,0.6-0.8C22,8.5,22.4,8.8,22.5,9c1.4,1.3,8.5,8.5,8.5,8.5c0.3,0.3,0.2,0.7-0.1,1.1c-0.3,0.3-0.8,0.4-1.1,0.1
				l-2-2c-0.3-0.3-0.7-0.3-0.9,0c-0.3,0.3-0.3,0.7,0,0.9l2,2c0.3,0.3,0.2,0.7-0.1,1.1C28.5,21,28,21,27.8,20.7l-2-2
				c-0.3-0.3-0.7-0.3-0.9,0c-0.3,0.3-0.3,0.7,0,0.9l2,2c0.3,0.3,0.2,0.7-0.1,1c-0.3,0.3-0.8,0.4-1.1,0.1l-2-2
				c-0.3-0.3-0.7-0.3-0.9,0c-0.3,0.3-0.3,0.7,0,0.9l2,2c0.3,0.3,0.2,0.7-0.1,1.1c-0.3,0.3-0.8,0.4-1.1,0.1l-2.4-2.5
				c0.3-0.5,0.3-1.3-0.3-1.8c-0.6-0.6-1.5-0.6-2-0.1c0.5-0.5,0.5-1.4-0.1-2c-0.6-0.6-1.5-0.6-2-0.1c0.5-0.5,0.5-1.4-0.1-2
				c-0.6-0.6-1.5-0.6-2-0.1c0.5-0.5,0.5-1.4-0.1-2c-0.5-0.5-1.4-0.6-1.9-0.2l-4-4C8.4,10,8,10,7.7,10.2c-0.3,0.3-0.3,0.7,0,0.9l4,4
				l-1.2,1.2c-0.5,0.5-0.5,1.4,0.1,2c0.6,0.6,1.5,0.6,2,0.1c-0.5,0.5-0.5,1.4,0.1,2c0.6,0.6,1.5,0.6,2,0.1c-0.5,0.5-0.5,1.4,0.1,2
				c0.6,0.6,1.5,0.6,2,0.1c-0.5,0.5-0.5,1.4,0.1,2c0.6,0.6,1.5,0.6,2,0.1l1.2-1.2l2.4,2.4c0.8,0.8,2.1,0.7,2.9-0.1
				c0.4-0.4,0.6-0.9,0.7-1.4c0.5,0,1-0.2,1.4-0.7c0.4-0.4,0.6-0.9,0.7-1.4c0.5,0,1-0.2,1.4-0.7c0.4-0.4,0.6-0.9,0.7-1.5
				c0.5,0,1-0.3,1.4-0.7c0.8-0.8,0.9-2.2,0.1-2.9l-1-1l4.2-4.2c0.3-0.3,0.3-0.7,0-0.9L29.1,4.3z"/>
			<path class="st0" d="M39.1,5.8l-5.4-5.4c-0.5-0.5-1.4-0.5-1.9,0L30,2.3c-0.5,0.5-0.5,1.4,0,1.9l5.4,5.4c0.5,0.5,1.4,0.5,1.9,0
				l1.9-1.9C39.6,7.1,39.6,6.3,39.1,5.8z M36.2,8.5c-0.6,0-1.1-0.5-1.1-1.1s0.5-1.1,1.1-1.1c0.6,0,1.1,0.5,1.1,1.1
				S36.9,8.5,36.2,8.5z"/>
		</g>
	</g>
</g>
</svg>
