<?xml version="1.0" encoding="utf-8"?>
<!-- Generator: Adobe Illustrator 19.2.0, SVG Export Plug-In . SVG Version: 6.00 Build 0)  -->
<svg version="1.1" id="Capa_1" xmlns="http://www.w3.org/2000/svg" xmlns:xlink="http://www.w3.org/1999/xlink" x="0px" y="0px"
	 viewBox="0 0 47 47" style="enable-background:new 0 0 47 47;" xml:space="preserve">
<style type="text/css">
	.st0{fill:#01889A;}
</style>
<g>
	<g id="Layer_1_87_">
		<g>
			<path class="st0" d="M41.2,9.4c0-0.8-0.8-1.1-1.5-1.2v2.4C40.4,10.5,41.2,10.2,41.2,9.4z"/>
			<path class="st0" d="M38.9,4.2c-0.8,0-1.4,0.5-1.4,1c0,0.6,0.5,1,1.4,1.2L38.9,4.2L38.9,4.2z"/>
			<path class="st0" d="M39.3,14.9c4.1,0,7.4-3.3,7.4-7.4S43.4,0,39.3,0c-4.1,0-7.4,3.3-7.4,7.4C31.8,11.5,35.2,14.9,39.3,14.9z
				 M36,5.5c0-1.7,1.4-2.5,2.9-2.6V2.3c0-0.2,0.2-0.4,0.4-0.4c0.2,0,0.4,0.2,0.4,0.4v0.7c1,0,2.9,0.6,2.9,1.8c0,0.5-0.4,0.8-0.8,0.8
				c-0.8,0-0.8-1.3-2.2-1.3v2.3c1.6,0.3,3.1,0.8,3.1,2.7c0,1.6-1.2,2.5-3.1,2.6v0.8c0,0.2-0.2,0.4-0.4,0.4c-0.2,0-0.4-0.2-0.4-0.4
				v-0.8c-2.1-0.1-3.1-1.3-3.1-2.3c0-0.5,0.3-0.8,0.8-0.8c1.4,0,0.3,1.7,2.3,1.8V8C37.1,7.7,36,6.9,36,5.5z"/>
			<path class="st0" d="M9.4,33.1H2.9c-1.2,0-2.1,1-2.1,2.1v9.6c0,1.2,1,2.1,2.1,2.1h6.4c1.2,0,2.1-1,2.1-2.1v-9.6
				C11.5,34.1,10.5,33.1,9.4,33.1z"/>
			<path class="st0" d="M25.9,25.6h-6.4c-1.2,0-2.1,1-2.1,2.1v17.1c0,1.2,1,2.1,2.1,2.1h6.4c1.2,0,2.1-1,2.1-2.1V27.8
				C28.1,26.6,27.1,25.6,25.9,25.6z"/>
			<path class="st0" d="M42.5,17.1h-6.4c-1.2,0-2.1,1-2.1,2.1v25.6c0,1.2,1,2.1,2.1,2.1h6.4c1.2,0,2.1-1,2.1-2.1V19.2
				C44.6,18,43.7,17.1,42.5,17.1z"/>
			<path class="st0" d="M29.7,11l-5.3-1.1c-0.4-0.1-0.8,0.1-1.1,0.4C23,10.6,23,11,23.2,11.4l1.2,2.2L0.9,25.8
				c-0.5,0.3-0.7,0.9-0.5,1.4c0.2,0.4,0.6,0.6,0.9,0.6c0.2,0,0.3,0,0.5-0.1l23.5-12.1l1.1,2c0.2,0.4,0.5,0.6,0.9,0.6c0,0,0,0,0.1,0
				c0.4,0,0.8-0.3,0.9-0.7l2-5c0.1-0.3,0.1-0.6,0-0.9C30.3,11.2,30,11,29.7,11z"/>
		</g>
	</g>
</g>
</svg>
